<?xml version="1.0" encoding="UTF-8"?> <svg xmlns="http://www.w3.org/2000/svg" xmlns:xlink="http://www.w3.org/1999/xlink" version="1.1" id="Layer_1" x="0px" y="0px" viewBox="0 0 242.4 242.4" style="enable-background:new 0 0 677.5 242.4;" xml:space="preserve"> <style type="text/css"> .st0{fill:#231F20;} .st1{fill:#014063;} </style> <g> <path class="st0" d="M137.8,61.9c-35.3,0-58.9,20.5-58.9,60.4v28.4c3.5-1.7,7.3-2.6,11.4-2.6s8,1,11.5,2.7v-28.5 c0-25.8,14.2-39.1,36-39.1s36,13.3,36,39.1v62.1h22.9v-62.1C196.7,82.2,173,61.9,137.8,61.9L137.8,61.9z"></path> <path class="st1" d="M24.6,125.8c-3,1.5-5.8,4-7.8,7.3c-2,3.3-2.8,6.8-2.5,10.3c0.3,6.3,3.8,12.1,9.5,15.3c5.3,3,11.3,2.3,17,1 c7-1.8,13-2.5,19.3,1.3c0,0,0,0,0.3,0c10.8,6.3,10.8,22.1,0,28.4c0,0,0,0-0.3,0c-6.3,3.8-12.3,3-19.3,1.3c-5.5-1.5-11.5-2.3-17,1 c-5.8,3.3-9,9.3-9.5,15.3c-0.3,3.5,0.5,7,2.5,10.3c2,3.3,4.5,5.8,7.8,7.3c5.5,2.8,12.3,2.8,18-0.5c5.3-3,7.8-8.8,9.3-14.3 c2-7,4.3-12.6,10.8-16.1c6.3-3.8,12.3-3,19.3-1.3c5.5,1.5,11.5,2.3,17-1c5.8-3.3,9-9.3,9.5-15.3c0-0.5,0-0.8,0-1.3 c0-0.5,0-0.8,0-1.3c-0.3-6.3-3.8-12.1-9.5-15.3c-5.3-3-11.3-2.3-17-1c-7,1.8-13,2.5-19.3-1.3c-6.3-3.8-8.8-9.1-10.8-16.1 c-1.5-5.5-4-11.1-9.3-14.3C36.8,123.1,30.1,123.1,24.6,125.8z"></path> </g> </svg> 